/* XPM */
static char *bitcoin64[] = {
/* columns rows colors chars-per-pixel */
"64 64 111 2 ",
"   c None",
".  c #010100",
"X  c #090704",
"o  c #0C0A06",
"O  c #0F0D08",
"+  c #120E09",
"@  c #16120B",
"#  c #1B150D",
"$  c #1D180F",
"%  c #1F1A10",
"&  c #241D12",
"*  c #2C2416",
"=  c #2F2618",
"-  c #302718",
";  c #342A1A",
":  c #392F1D",
">  c #3D321F",
",  c #222222",
"<  c #3F3320",
"1  c #423521",
"2  c #463923",
"3  c #4B3D26",
"4  c #4E4027",
"5  c #54452A",
"6  c #5B4A2E",
"7  c #5F4E30",
"8  c #604E30",
"9  c #655233",
"0  c #695635",
"q  c #6D5936",
"w  c #6F5B38",
"e  c #735E3A",
"r  c #76613C",
"t  c #7A643D",
"y  c gray36",
"u  c #7F6740",
"i  c #676767",
"p  c #6C6C6C",
"a  c #7A746A",
"s  c #836A42",
"d  c #886F44",
"f  c #8C7246",
"g  c #8F7548",
"h  c #927749",
"j  c #967A4B",
"k  c #9A7E4D",
"l  c #9D804F",
"z  c #9F8250",
"x  c #A38552",
"c  c #A78854",
"v  c #AA8B55",
"b  c #AF8F58",
"n  c #B4935A",
"m  c #B9975D",
"M  c #BC9A5E",
"N  c #998A70",
"B  c #BF9C60",
"V  c #C39F62",
"C  c #C6A163",
"Z  c #CBA666",
"A  c #CEA867",
"S  c #CFA968",
"D  c #D4AD6A",
"F  c #D7B06C",
"G  c #D9B16D",
"H  c #DBB574",
"J  c #DCB778",
"K  c #DDBA7D",
"L  c #DFBD84",
"P  c #E0BF87",
"I  c #E1C18B",
"U  c #E3C592",
"Y  c #E6CA9C",
"T  c #E7CDA2",
"R  c #E8CFA6",
"E  c #EAD4AE",
"W  c #EBD6B2",
"Q  c #ECD8B6",
"!  c #EEDCBD",
"~  c #EEDCBE",
"^  c #EDDABA",
"/  c #C8C8C8",
"(  c #D5D5D5",
")  c #EFDEC1",
"_  c #EFDEC2",
"`  c #F1E3CA",
"'  c #F1E3CB",
"]  c #F2E4CD",
"[  c #F2E5CF",
"{  c #F5EAD8",
"}  c #F6ECDB",
"|  c #F6ECDC",
" . c #F6EDDD",
".. c #F7EEDE",
"X. c #F8F0E3",
"o. c #F8F1E5",
"O. c #F9F3E8",
"+. c #FAF4EA",
"@. c #FAF5EC",
"#. c #FBF6EE",
"$. c #FBF6EF",
"%. c gray95",
"&. c #FCF8F2",
"*. c #FDFBF8",
"=. c #FEFDFA",
"-. c gray99",
";. c #FEFDFC",
":. c #FEFEFD",
">. c #FFFEFE",
",. c #FFFFFE",
"<. c white",
/* pixels */
"                                                                                                                                ",
"                                                                                                                                ",
"                                                                                                                                ",
"                                                  . . . . . . X + X . . . . . .                                                 ",
"                                            . . X 1 r k M D G G G G G C c s 5 $ . . .                                           ",
"                                      . . X 5 c D G G G G G G G G G G G G G G G M w $ . .                                       ",
"                                  . . $ s D G G G G G G G G G G G G G G G G G G G G G c : . .                                   ",
"                                . X s D G G G G G G G G G G G G G G G G G G G G G G G G G c * . .                               ",
"                            . . 5 A G G G G G G G G G G G G G G G G G G G G G G G G G G G G F s X .                             ",
"                          . X h G G G G G G G G G G G G G G G G G G G G G G G G G G G G G G G G m & .                           ",
"                        . $ M G G G G G G G G G G G G G P W ]  . .] W L G G G G G G G G G G G G G D 3 .                         ",
"                      . * C G G G G G G G G G G G G I  .<.<.<.<.<.<.<.<. .I G G G G G G G G G G G G G 8 .                       ",
"                    . * A G G G G G G G G G G G G Q <.<.<.<.<.<.<.<.<.<.<.<.Q G G G G G G G G G G G G G 9 .                     ",
"                  . $ C G G G G G G G G G G G G ] <.<.<.<.<.<.<.<.<.<.<.<.<.<.^ G G G G G G G G G G G G G 5 .                   ",
"                . X M G G G G G G G G G G G G Q <.<.<.<.<.<.<.<.<.<.<.<.<.<.<.<.R G G G G G G G G G G G G D ; .                 ",
"                . h G G G G G G G G G G G G L <.<.<.<.<.<.<.<.<.<.<.<.<.<.<.<.<.<.K G G G G G G G G G G G G C + .               ",
"              . 5 G G G G G G G G G G G G G ] <.<.<.<.<.<.<.<.<.<.<.<.<.<.<.<.<.<.^ G G G G G G G G G G G G G k .               ",
"            . X A G G G G G G G G G G G G H <.<.<.<.<.<.<.<.<.<.<.<.<.<.<.<.<.<.<.&.G G G G G G G D C F G G G G 1 .             ",
"            . s G G G G G G G G G G G G G Y <.<.<.<.<.<.<.<.<.<.<.<.<.<.<.<.<.<.<.<.I G D h 1 > X . . @ & q j G n .             ",
"          . @ D G G G G G G G G G G G G G E <.<.<.<.<.<.<.<.<.<.<.<.<.<.<.<.<.<.<.<.Y G - . . . . . . . . . . $ $ * .           ",
"          . s G G G G G G G G G G G G G G ^ <.<.<.<.<.<.<.<.<.<.<.<.<.<.<.<.<.<.<./ N e . . . . . . . . . . . . . X .           ",
"          X D G G G G G G G G G G G G G G W <.<.<.<.<.<.<.<.<.<.<.<.<.<.<.<.<.( y . . . . . . . . . . . 1 6 & % . . - .         ",
"        . 5 G G G G G G G G G G G G G G G T <.<.<.<.<.<.<.<.<.<.<.<.<.<.<.<.p . . . . . . . . . . . 9 A M 3 C 9 . . * .         ",
"        . c G G G G G G G G G G G G G G G K <.<.<.<.<.<.<.<.<.<.<.<.<.<.<.<.p i , . . . . . . . . . D A G q C r k c c O .       ",
"        X D G G G G G G G G G G G G G G G G o.<.<.<.<.<.<.<.<.<.<.<.<.<.<.<.<.<.%.a 5 & . . . + 8 8 4 h D s 6 d D j 5 2 .       ",
"      . 1 G G G G G G G G G G G G G G G G G T <.<.<.<.<.<.<.<.<.<.<.<.<.<.<.<.<.<.U G A s s 0 0 6 3 ; + c 3 . > 9 0 s e .       ",
"      . r G G G G G G G G G G G G G G G G G G  .<.<.<.<.<.<.<.<.<.<.<.<.<.<.<.<.] G G G G G G G G n O . 5 . . n G G G B .       ",
"      . k G G G G G G G G G G G G G G G G G G K $.<.<.<.<.<.<.<.<.<.<.<.<.<.<.$.H G G G G G G G G G 5 . . . . D G G G G .       ",
"      . M G G G G G G G G G G G G G G G G G G G L $.<.<.<.<.<.<.<.<.<.<.<.<.o.K G G G G G G G G G G r . . . . C G G G G & .     ",
"      . D G G G G G G G G G G G G G G G G G G G G J ] <.<.<.<.<.<.<.<.<.<._ H G G G G G G G G G G G r . . . . b G G G G 2 .     ",
"      . G G G G G G G G G G G G G G G G G G G G G G G I _ $.<.<.<.<.$.^ L G G G G G G G G G G G G G 9 . . . . j G G G G 5 .     ",
"      X G G G G G G G G G G G G G G G G G G G G G G G G G G H L L H G G G G G G G G G G G G G G G G 3 . . . . r G G G G 6 .     ",
"      + G G G G G G G G G G G G G G G G G G G G G G G G G G G G G G G G G G G G G G G G G G G G G G ; . . . . 9 G G G G 7 .     ",
"      X G G G G G G G G G G G G G G G G G G G G G G G G G G G G G G G G G G G G G G G G G G G G G G $ . . . . 5 G G G G 5 .     ",
"      . G V e 3 $ & < r j D G G G G G G G G G G G G G G G G G G G G G G G G G G G G G G G G G G G G . . . . . 1 G G G G 3 .     ",
"      . @ . . . . . . . . ; D G G G G G G G G G G G G G G G G G G G G G G G G G G G G G G G G G G C . . . . . - G G G G ; .     ",
"      . . . . . . . . . . . > B G G G G G G G G G S 0 > : f A d 6 3 7 u A G G G G G G G G G G G G n . . . . . $ G G G G X       ",
"      . + . . . . . . . . . . f G G G G G G G G D 5 . . . . . . . . . . * m D G G G G G G G G G G k . . . . . X G G G A .       ",
"      . $ . 2 . X . . . . + s D G G G G G G G c ; . . . . . 3 9 6 X . . . . % g G G G G G G G G G s . . . . . . D G G k .       ",
"      . X ; k . 2 6 1 j V G G G G G G G G G G A f s 2 3 6 c h j A 5 . . . . 2 s G G G G G G G G G e . . . . . . C G G 9 .       ",
"        . $ $ . k 2 s G G G G G G G G G G G G G G G G D c s 5 3 3 6 f r f D G G G G G G G G G G G 0 . . . . . . M G G & .       ",
"        . 1 . . X 9 G G G G G G G G G G G G G G G G G G G G h . . c G G G G G G G G G G G G G G G 7 . . . . . . m G n .         ",
"        . @ . . = S G G G G G G G G G G G G G G G G G G G G s . . M G G G G G G G G G G G G G G G 5 . . . . . . n G 0 .         ",
"          . X X D G G G G G G G G G G G G G G G G G G G G G q . . c G G G G G G G G G G G G G G G 3 . . . . . . c D + .         ",
"          . $ $ G G G G G G G G G G G G G G G G G G G G G G 5 . . g G G G G G G G G G G G G G G G 1 . . . . . . c s .           ",
"            . & G G G G G G G G V k k C G G G G G G G G G G 3 . . r G G G G G G G G G G G G G G G : . . . . . . k @ .           ",
"            . $ F G G G G G D 6 . . . . 1 c A G G G G G G G : . . 9 G G G G G G G G G G G G G G G : . . . . . . 6 .             ",
"              . s G G G G G C 6 $ @ + * . . 1 G G G G G G G * . . 3 G G G G G G G G G G G G G G G > . . . . . 3 .               ",
"              . X m G G G G G G j e & = ; 9 j G G G G G G G $ . . > G G G G G G G G G G G G G G G < . . . . $ * .               ",
"                . & D G G G G G G j & - G G G G G G G G G G X . . ; G G G G G G G G G G G G G G G 1 . . . . 5 .                 ",
"                  . 3 G G G G G G G e 3 G G G G G G G G G G . . . * G G G G G G G G G G G G G G G 2 . . . 6 .                   ",
"                    . 6 G G G G G G r 3 G G G G G G G G G G . . . & G G G G G G G G G G G G G G G 2 . . 5 . .                   ",
"                      . 9 G G G G G r 1 G G G D A G G G G G X . . & G G G G G G G G F G G G G G G 3 . 5 X .                     ",
"                        . 5 D G A G 0 > b G G G c G G G G G X . . & G G G n G D G G C M G A n G G 6 6 . .                       ",
"                          . ; V A f - + n G G G A j A G G G X . . * G G G D h l D G G c M m c G D 0 . .                         ",
"                            . O e 5 X X k V D G G g d G G G X . . - G G G G c 6 c G G G 0 9 C M ; .                             ",
"                              . . * $ . . . . X $ $ $ 2 5 9 X . . & h h k z c & 6 c c c 2 1 e . .                               ",
"                                  . . : % . . . . . . . . . . . . . . . . . . . . . . = 6 @ .                                   ",
"                                      . . : : X . . . . . . . . . . . . . . . . @ 3 5 + . .                                     ",
"                                          . . + > 1 ; + . . . . . . . . & 2 5 3 & . . .                                         ",
"                                              . . . . . & : < 1 3 2 1 ; X . . . .                                               ",
"                                                        . . . . . . . .                                                         ",
"                                                                                                                                ",
"                                                                                                                                "
};
