/* XPM */
static char *bitcoin16[] = {
/* columns rows colors chars-per-pixel */
"16 16 102 2 ",
"   c None",
".  c black",
"X  c #060503",
"o  c #090704",
"O  c #0D0A06",
"+  c #15110B",
"@  c #16120B",
"#  c #19140C",
"$  c #1E180F",
"%  c #282114",
"&  c #2E2517",
"*  c #2D2617",
"=  c #312818",
"-  c #382E1C",
";  c #3B301E",
":  c #322E28",
">  c #3E3420",
",  c #3F3420",
"<  c #413520",
"1  c #423521",
"2  c #413522",
"3  c #443923",
"4  c #463822",
"5  c #473924",
"6  c #4A3D25",
"7  c #4B3D26",
"8  c #4E4027",
"9  c #4F4027",
"0  c #524329",
"q  c #54452A",
"w  c #55452B",
"e  c #5A4A2D",
"r  c #5B4A2E",
"t  c #5D4C2F",
"y  c #614E30",
"u  c #614F31",
"i  c #645232",
"p  c #695535",
"a  c #6A5635",
"s  c #6A5736",
"d  c #6C5837",
"f  c #6E5A37",
"g  c #705C38",
"h  c #725D39",
"j  c #755F3B",
"k  c #75603B",
"l  c #79633D",
"z  c #7A643D",
"x  c #7B643E",
"c  c #7B653E",
"v  c #806740",
"b  c #806840",
"n  c #806941",
"m  c #846C42",
"M  c #876D43",
"N  c #876E44",
"B  c #8B7246",
"V  c #8C7347",
"C  c #907548",
"Z  c #927749",
"A  c #A38652",
"S  c #A78854",
"D  c #A88955",
"F  c #B7955B",
"G  c #B8965C",
"H  c #BB985D",
"J  c #BD9A5F",
"K  c #BF9C60",
"L  c #C39F62",
"P  c #C4A062",
"I  c #C6A264",
"U  c #C8A364",
"Y  c #CBA566",
"T  c #CDA767",
"R  c #CFA968",
"E  c #D0A968",
"W  c #D3AC6A",
"Q  c #D4AD6A",
"!  c #D5AE6B",
"~  c #D8B06D",
"^  c #D9B16D",
"/  c #C6AA79",
"(  c #DBB574",
")  c #DBB575",
"_  c #DCB677",
"`  c #DCB87A",
"'  c #E2C38E",
"]  c #E3C593",
"[  c #E4C796",
"{  c #E6CCA0",
"}  c #E7CDA1",
"|  c #EBD6B2",
" . c #ECD8B6",
".. c gray82",
"X. c #EFDDC0",
"o. c #F3E7D2",
"O. c #F4E8D3",
"+. c #FAF4EA",
"@. c #FAF6ED",
"#. c #FEFEFD",
"$. c #FFFEFE",
"%. c white",
/* pixels */
"                                ",
"        5 z G Q Q J v 7         ",
"      y Q ~ ) } } ) ~ Q s       ",
"    y ~ ~ ` @.%.%.@.) ~ ~ f     ",
"  5 Q ~ ~  .%.%.%.%.| Z f V 2   ",
"  z ~ ~ ~ X.%.%.%...: X * t 2   ",
"  F ~ ~ ~ ' %.%.%.%./ V y q A   ",
"  Q ~ ~ ~ ~ [ O.o.[ ~ ~ b * ~   ",
"  Z z J ~ ~ ~ ~ ~ ~ ~ ~ h @ ~   ",
"  $ # i ~ Q q 8 = k ~ ~ t o U   ",
"  * D ~ ~ ~ ~ b V Q ~ ~ q X b   ",
"  - Q U s S ~ b b ~ ~ ~ 8 X 8   ",
"    s ~ b L ~ z z ~ ~ ~ 7 >     ",
"      s h U I h z I R K t       ",
"        ; = $ O @ ; q 5         ",
"              > 2               "
};
