/* XPM */
static char *bitcoin32[] = {
/* columns rows colors chars-per-pixel */
"32 32 210 2 ",
"   c None",
".  c black",
"X  c #010100",
"o  c #020101",
"O  c #030201",
"+  c #040302",
"@  c #060503",
"#  c #070503",
"$  c #070603",
"%  c #090704",
"&  c #090805",
"*  c #0A0805",
"=  c #0B0905",
"-  c #0B0906",
";  c #0E0B07",
":  c gray3",
">  c #0F0C08",
",  c #110E09",
"<  c #130F09",
"1  c #14110A",
"2  c #15110B",
"3  c #17130C",
"4  c #19150B",
"5  c #19140C",
"6  c #1A150D",
"7  c #1B160D",
"8  c #1B160E",
"9  c #1C160D",
"0  c #1D170D",
"q  c #1C170E",
"w  c #1D170E",
"e  c #1C160F",
"r  c #1C180E",
"t  c #1D180E",
"y  c #1E180E",
"u  c #1E180F",
"i  c #1F190F",
"p  c #1F1A0F",
"a  c #1F1B0F",
"s  c #1D1810",
"d  c #1F1810",
"f  c #1F1910",
"g  c #1F1A10",
"h  c #201A0F",
"j  c #201A10",
"k  c #201B10",
"l  c #211B10",
"z  c #201A11",
"x  c #201B11",
"c  c #211B11",
"v  c #221B10",
"b  c #231C12",
"n  c #241D12",
"m  c #251E12",
"M  c #261F13",
"N  c #271F13",
"B  c #272014",
"V  c #292014",
"C  c #282114",
"Z  c #292114",
"A  c #2A2115",
"S  c #2B2315",
"D  c #2B2316",
"F  c #2D2416",
"G  c #2D2516",
"H  c #2D2517",
"J  c #2E2517",
"K  c #2E2617",
"L  c #2F2618",
"P  c #2F2718",
"I  c #312818",
"U  c #312819",
"Y  c #33291A",
"T  c #342A1A",
"R  c #342B1A",
"E  c #342A1B",
"W  c #342B1B",
"Q  c #352B1B",
"!  c #352D1B",
"~  c #362C1B",
"^  c #372D1B",
"/  c #362C1C",
"(  c #372D1C",
")  c #382E1C",
"_  c #392F1D",
"`  c #3C311E",
"'  c #403420",
"]  c #423521",
"[  c #423621",
"{  c #433721",
"}  c #443822",
"|  c #453922",
" . c #453823",
".. c #463923",
"X. c #473A23",
"o. c #463924",
"O. c #483B24",
"+. c #4A3C25",
"@. c #4B3E26",
"#. c #4E3F27",
"$. c #413828",
"%. c #4F4128",
"&. c #514229",
"*. c #54442A",
"=. c #54452A",
"-. c #55452B",
";. c #56452B",
":. c #58472C",
">. c #58482C",
",. c #59492D",
"<. c #5B492D",
"1. c #5D4C2F",
"2. c #5E4C2F",
"3. c #614F31",
"4. c #615031",
"5. c #625031",
"6. c #635131",
"7. c #635132",
"8. c #645132",
"9. c #665333",
"0. c #695635",
"q. c #6C5836",
"w. c #6D5937",
"e. c #6F5B38",
"r. c #715C39",
"t. c #725C39",
"y. c #755F3B",
"u. c #7F673F",
"i. c #555555",
"p. c #886F44",
"a. c #8A7045",
"s. c #8B7146",
"d. c #8C7347",
"f. c #8F7548",
"g. c #907548",
"h. c #927749",
"j. c #92774A",
"k. c #94794A",
"l. c #987C4D",
"z. c #9C7F4E",
"x. c #9E8150",
"c. c #A28451",
"v. c #A58753",
"b. c #AA8B55",
"n. c #AD8D57",
"m. c #AE8E57",
"M. c #AF8F58",
"N. c #B19059",
"B. c #B19159",
"V. c #B29159",
"C. c #B3925A",
"Z. c #B6955B",
"A. c #B7955C",
"S. c #BF9B60",
"D. c #BF9C60",
"F. c #C09D61",
"G. c #C19E61",
"H. c #C39F62",
"J. c #C4A062",
"K. c #C5A063",
"L. c #C5A163",
"P. c #C7A264",
"I. c #C8A364",
"U. c #C9A465",
"Y. c #CAA565",
"T. c #CBA566",
"R. c #CBA666",
"E. c #CCA767",
"W. c #CDA767",
"Q. c #D0A968",
"!. c #D0AA69",
"~. c #D1AB69",
"^. c #D3AC6A",
"/. c #D5AE6B",
"(. c #D6AE6B",
"). c #D6AF6C",
"_. c #D7B06C",
"`. c #D8B06D",
"'. c #D9B16D",
"]. c #D9B26F",
"[. c #DAB472",
"{. c #DBB473",
"}. c gray54",
"|. c #DEBB80",
" X c #E0BF87",
".X c #E0C088",
"XX c #E1C28D",
"oX c #E2C38F",
"OX c #E3C592",
"+X c #E3C593",
"@X c #E3C695",
"#X c #E6CC9F",
"$X c #D2C9BA",
"%X c #E6CDA1",
"&X c #E7CDA2",
"*X c #E9D1A9",
"=X c #ECD8B6",
"-X c #EEDCBE",
";X c #F2E4CD",
":X c #F2E5CF",
">X c #F7EFE1",
",X c #F9F3E9",
"<X c #FAF4EA",
"1X c #FBF6EE",
"2X c #F3F3F3",
"3X c #FBF8F1",
"4X c #FDFCF9",
"5X c #FEFDFB",
"6X c #FFFFFE",
"7X c white",
/* pixels */
"                                                                ",
"                          9 m h m m s                           ",
"                    i K r.m.J._.'.J.B.u.^ s                     ",
"                9 | S.'.'.'.'.'.'.'.'.'.'.R.2.m                 ",
"              m B.'.'.'.'.'.'.'.'.'.'.'.'.'.'.S.^               ",
"            ^ R.'.'.'.'.'.+X:X,X,X:X.X'.'.'.'.'.(.+.            ",
"          ^ (.'.'.'.'.'.-X7X7X7X7X7X7X=X'.'.'.'.'.'.-.          ",
"        m R.'.'.'.'.'.*X7X7X7X7X7X7X7X7X&X'.'.'.'.'.(.^         ",
"      9 B.'.'.'.'.'.'.3X7X7X7X7X7X7X7X7X,X'.'.'._.(.'.R.i       ",
"      | '.'.'.'.'.'..X7X7X7X7X7X7X7X7X7X7X|.6.9 . . m 6.]       ",
"    i S.'.'.'.'.'.'.+X7X7X7X7X7X7X7X7X2X}.$.. . . . K < . i     ",
"    P '.'.'.'.'.'.'.|.7X7X7X7X7X7X7X7Xi.> . . . . B.l.l.%.^     ",
"    r.'.'.'.'.'.'.'.'.>X7X7X7X7X7X7X7X7X$Xp.| ^ 2.-.f.+.j.0.    ",
"  i m.'.'.'.'.'.'.'.'..X7X7X7X7X7X7X7X7X X'.'.'.(.9 2 6.'.(.m   ",
"  m J.'.'.'.'.'.'.'.'.'.+X3X7X7X7X7X,X.X'.'.'.'.'.` . 2.'.'.m   ",
"  m (.'.'.'.'.'.'.'.'.'.'.{.&X-X-X#X{.'.'.'.'.'.'.K . | '.'.K   ",
"  m '.'.'.'.'.'.'.'.'.'.'.'.'.'.'.'.'.'.'.'.'.'.'.2 . K '.'.K   ",
"  i 6.P > K q._.'.'.'.'.'.'.'.'.'.'.'.'.'.'.'.'.(.. . 9 '.'.K   ",
"  s * . . . . 6.'.'.'.'.B.K ^ -.B ^ c.'.'.'.'.'.S.. . * '.(.h   ",
"    K _ K ^ q.J.'.'.'.J.-.m ] r.6.. . 2.'.'.'.'.m.. . . (.c.9   ",
"    m . -.J.'.'.'.'.'.'.'.'.F.| %.m.J.'.'.'.'.'.x.. . . R.-.    ",
"    i % m.'.'.'.'.'.'.'.'.'.'.` 2.'.'.'.'.'.'.'.k.. . . F.m     ",
"      K '.'.'.'.F.J.'.'.'.'.'.B ] '.'.'.'.'.'.'.s.. . . e.      ",
"      9 S.'.'.k.* < _ M.'.'.'.9 K '.'.'.'.'.'.'.s.. . 2 i       ",
"        ^ (.'.'.x.m j.R.'.'.'.* s '.'.'.'.'.'.'.s.. . ^         ",
"          +.'.'.'.3.'.'.'.'.'.. 9 '.'.'.'.'.'.'.j.. ]           ",
"            -.(.(.:.R.'.R.'.'.. 9 '.(.(.'.R.(.(.l.| 9           ",
"              ^ p.< B.'.B.J.'.. 2 '._.s.R.R.k.F.+.i             ",
"                9 P * . * 9 K . * +.+.^ ] 6.+.m                 ",
"                    s K ^ 2 . . . . 9 ^ ^ m                     ",
"                          s m K B m s 9                         ",
"                                                                "
};
