<?xml version="1.0" encoding="UTF-8"?>
<!DOCTYPE svg PUBLIC "-//W3C//DTD SVG 1.1//EN" "http://www.w3.org/Graphics/SVG/1.1/DTD/svg11.dtd">
<svg version="1.1" xmlns="http://www.w3.org/2000/svg" xmlns:xlink="http://www.w3.org/1999/xlink" x="0" y="0" width="189.712" height="189.712" viewBox="0, 0, 189.712, 189.712">
  <g id="Layer_1">
    <g>
      <g>
        <path d="M95.356,9.5 C142.773,9.5 181.212,47.939 181.212,95.356 C181.212,142.773 142.773,181.212 95.356,181.212 C47.939,181.212 9.5,142.773 9.5,95.356 C9.5,47.939 47.939,9.5 95.356,9.5 z" fill="#D9B16D"/>
        <path d="M95.356,9.5 C142.773,9.5 181.212,47.939 181.212,95.356 C181.212,142.773 142.773,181.212 95.356,181.212 C47.939,181.212 9.5,142.773 9.5,95.356 C9.5,47.939 47.939,9.5 95.356,9.5 z" fill-opacity="0" stroke="#000000" stroke-width="4"/>
      </g>
      <g>
        <path d="M125.85,61.361 C125.85,78.561 111.907,92.505 94.706,92.505 C77.505,92.505 63.561,78.561 63.561,61.361 C63.561,44.16 77.505,30.216 94.706,30.216 C111.907,30.216 125.85,44.16 125.85,61.361 z" fill="#FFFFFF" id="XMLID_559_"/>
        <path d="M85.45,107.281 C85.885,107.261 86.324,107.278 86.636,107.612 C87.074,108.182 86.373,108.291 87.491,108.751 C87.798,108.861 87.973,108.883 88.214,109.102 C88.543,109.409 88.74,110.023 89.266,109.782 C89.441,109.716 89.398,109.475 89.639,109.453 C89.88,109.453 89.967,109.606 90.011,109.825 C90.033,109.825 90.055,109.803 90.099,109.803 C90.756,109.694 91.063,109.606 91.524,109.102 C91.809,108.817 92.115,108.554 92.532,108.642 C92.641,108.664 92.751,108.817 92.839,108.839 C93.124,108.883 93.102,108.773 93.387,108.642 C93.606,108.554 93.847,108.554 94.066,108.467 C94.329,108.357 94.592,108.006 94.877,107.94 C95.359,107.853 95.841,108.138 96.345,108.116 C96.828,108.094 97.134,107.721 97.617,107.656 C97.902,107.612 98.186,107.678 98.471,107.656 C98.691,107.634 98.932,107.546 99.151,107.568 C99.414,107.612 99.699,107.743 99.962,107.809 C100.51,107.941 100.86,107.941 101.408,107.897 C101.781,107.853 102.46,107.809 102.811,108.006 C102.921,108.072 102.964,108.204 103.074,108.269 C103.512,108.554 103.841,108.467 104.345,108.335 C104.762,108.225 105.2,108.05 105.616,108.291 C105.77,108.379 105.88,108.532 105.989,108.664 C106.384,109.146 106.712,109.102 107.26,109.212 C107.786,109.321 108.247,109.54 108.532,110.023 C108.729,110.351 108.553,110.702 108.707,110.943 C108.882,111.25 109.43,111.294 109.649,111.645 C109.759,111.82 109.803,112.565 110.022,112.653 C110.241,112.762 110.329,112.521 110.592,112.368 C110.723,112.302 110.877,112.324 110.986,112.412 C111.118,112.192 111.249,111.995 111.512,111.864 C111.951,111.666 112.257,111.798 112.608,112.083 C113.068,112.434 113.726,113.201 114.34,113.266 C114.866,113.332 115.107,113.157 115.523,113.573 C115.72,113.771 115.742,114.055 116.071,114.165 C116.29,114.231 116.553,114.121 116.772,114.165 C117.233,114.253 117.452,114.538 117.715,114.91 C117.934,115.239 118.109,115.392 118.394,115.655 C118.504,115.765 118.57,115.743 118.635,115.918 C118.723,116.16 118.614,116.357 118.438,116.532 C117.627,117.343 116.948,116.773 116.005,116.795 C115.633,116.795 115.107,116.861 114.8,117.08 C114.603,117.212 114.471,117.431 114.274,117.562 C113.814,117.891 113.134,118.242 112.608,118.483 C112.257,118.636 111.775,118.79 111.381,118.592 C111.293,118.549 111.227,118.483 111.14,118.417 C110.855,118.176 111.074,118.154 110.723,118.329 C110.548,118.417 110.46,118.57 110.241,118.658 C109.912,118.79 109.584,118.702 109.342,118.987 C109.101,119.25 109.167,119.601 108.773,119.754 C108.597,119.82 108.444,119.798 108.268,119.776 C107.918,119.688 107.699,119.622 107.304,119.688 C106.8,119.776 106.274,119.644 105.77,119.732 C105.529,119.776 105.353,119.929 105.112,119.973 C104.762,120.061 104.389,119.995 104.038,120.017 C103.863,120.039 103.644,120.039 103.403,120.039 L102.723,120.192 C101.649,120.433 100.4,120.696 99.282,121.179 C97.463,124.05 98.296,127.842 98.734,131.02 C99.217,134.548 99.589,138.077 99.852,141.628 C100.4,148.816 100.51,156.049 100.203,163.26 C100.137,164.794 100.049,166.329 99.94,167.863 C105.463,168.06 110.986,168.213 116.509,168.301 C115.282,164.707 113.419,161.287 110.877,158.482 C110.636,158.219 111.03,157.825 111.271,158.088 C114.011,160.937 116.268,164.049 117.956,167.556 C117.715,164.772 117.057,162.12 116.356,159.359 C116.312,159.205 116.553,159.096 116.641,159.249 C118.153,161.857 118.92,164.926 119.293,167.95 C119.468,166.197 119.644,164.466 119.775,162.712 C119.797,162.471 120.17,162.471 120.17,162.712 C120.17,164.597 120.192,166.482 120.257,168.367 C124.115,168.411 127.95,168.433 131.808,168.411 C131.764,168.038 131.72,167.665 131.654,167.293 C131.413,166.065 131.063,164.838 130.58,163.676 C129.572,161.2 127.994,158.92 126.022,157.101 C125.846,156.948 126.109,156.685 126.285,156.838 C128.411,158.679 130.186,160.805 131.523,163.282 C132.093,164.378 132.641,165.583 133.079,166.833 C133.254,165.364 133.211,163.918 132.794,162.34 C132.706,162.011 133.167,161.901 133.298,162.208 C134.021,163.939 134.46,166 134.35,167.95 C135.687,164.729 136.279,161.266 136.279,157.627 C136.279,157.255 136.915,157.145 136.958,157.54 C137.442,161.046 136.991,164.584 135.895,167.933 C123.26,175.124 109.185,178.511 94.706,178.694 C77.865,178.724 61.363,173.566 47.43,164.153 C50.407,164.473 48.517,164.275 53.102,164.729 L52.752,164.071 C51.743,162.252 50.319,160.718 48.609,159.556 C48.412,159.425 48.587,159.118 48.807,159.227 C50.691,160.235 52.291,161.66 53.541,163.413 C53.738,163.698 53.913,163.983 54.111,164.29 C54.111,164.181 54.111,164.071 54.132,163.961 C53.891,162.581 53.343,161.287 52.489,160.126 C52.379,159.951 52.642,159.775 52.774,159.907 C53.409,160.564 53.935,161.266 54.352,162.033 L54.395,161.638 C54.527,160.477 54.746,159.359 54.856,158.197 C54.965,156.97 55.031,155.764 55.031,154.537 C55.053,153.353 55.053,152.148 55.053,150.964 C55.053,149.847 54.922,148.773 54.768,147.655 C54.352,147.567 53.957,147.458 53.563,147.304 C52.554,146.888 51.743,146.186 50.911,145.507 C49.968,144.762 49.048,143.995 48.412,142.965 C48.193,142.592 48.018,142.219 47.886,141.825 C47.382,141.737 46.9,141.606 46.396,141.452 C46.198,141.386 46.045,141.277 45.892,141.123 C45.585,140.773 45.366,140.576 44.905,140.422 C44.62,140.334 44.313,140.225 44.029,140.203 C43.809,140.181 43.634,140.203 43.415,140.093 C43.327,140.05 43.261,139.896 43.305,139.808 C43.612,139.041 44.642,139.282 44.993,138.581 C45.387,137.792 46.198,137.332 46.768,136.696 C47.097,136.324 47.535,136.236 47.996,136.148 C48.522,136.039 48.938,135.863 49.464,135.929 C49.793,135.973 50.056,136.082 50.319,135.907 C50.494,135.798 50.56,135.666 50.757,135.578 C51.152,135.403 51.656,135.469 52.094,135.403 C52.554,135.337 53.015,135.25 53.475,135.272 C53.957,135.293 54.308,135.118 54.724,135.447 C54.965,135.644 55.097,135.841 55.426,135.841 C55.711,135.841 55.82,135.6 56.083,135.535 C56.478,135.447 56.631,135.907 56.96,135.995 C57.091,136.039 57.376,136.039 57.486,136.017 C57.595,135.995 57.683,135.929 57.815,135.973 C57.946,136.017 57.99,136.104 58.078,136.192 L58.187,136.345 C58.516,136.63 58.384,136.411 58.56,136.477 C58.779,136.565 58.91,136.696 59.13,136.696 C59.327,136.696 59.458,136.608 59.656,136.63 C59.787,136.652 59.897,136.74 60.028,136.784 C60.247,136.872 60.467,136.806 60.686,136.893 C61.015,137.025 61.234,137.376 61.387,137.682 C61.738,138.406 62.242,138.099 62.856,138.187 C63.206,138.23 63.425,138.471 63.469,138.822 C63.513,139.063 63.425,139.151 63.294,139.26 C63.513,139.151 63.645,138.866 63.93,138.756 C64.061,138.713 64.215,138.734 64.346,138.713 C64.587,138.691 64.784,138.537 65.004,138.537 C65.31,138.515 65.464,138.844 65.749,138.932 C65.968,138.997 66.209,138.954 66.34,139.151 C66.428,139.26 66.384,139.392 66.406,139.523 C66.45,139.896 66.625,140.378 66.976,140.554 C67.436,140.795 68.291,140.926 68.116,141.628 C67.984,142.066 67.414,142.044 67.656,142.592 C67.721,142.767 67.875,142.767 67.721,142.986 C67.59,143.162 67.305,143.271 67.13,143.381 C67.02,143.447 66.932,143.556 66.801,143.578 C66.384,143.622 66.056,143.293 65.705,143.118 C65.727,143.206 65.749,143.315 65.639,143.403 C65.398,143.6 65.025,143.556 64.741,143.6 C64.368,143.644 64.171,143.951 63.82,143.951 L63.688,143.885 C63.645,143.885 63.579,143.951 63.535,143.951 C63.425,143.951 63.338,143.973 63.228,143.907 C63.206,143.907 63.141,143.819 63.119,143.775 L63.075,143.819 C63.009,143.907 62.899,143.973 62.812,144.06 C62.549,144.301 62.33,144.323 61.979,144.389 C61.738,144.433 61.343,144.608 61.124,144.477 C60.971,144.367 60.971,144.192 60.905,144.082 C60.664,144.214 60.401,144.367 60.16,144.521 C59.261,145.091 58.669,145.748 58.494,146.822 C58.319,147.808 58.297,148.816 58.209,149.825 C58.165,150.329 58.187,150.811 58.231,151.315 C58.275,151.863 58.231,152.389 58.253,152.915 C58.275,154.011 58.363,155.085 58.406,156.181 C58.494,158 58.604,159.819 58.516,161.638 C59.217,160.214 60.072,158.855 61.058,157.627 C61.256,157.386 61.628,157.693 61.475,157.934 C60.247,159.972 59.349,162.12 58.779,164.378 C59.217,163.852 59.678,163.348 60.16,162.866 C60.379,162.624 60.73,162.975 60.51,163.216 C59.875,163.852 59.327,164.553 58.823,165.276 C64.412,165.781 70.001,166.219 75.59,166.613 C75.064,162.8 73.332,159.118 70.943,156.115 C70.746,155.896 71.075,155.545 71.272,155.786 C74.055,158.964 75.787,162.668 76.729,166.701 C76.97,166.723 77.19,166.723 77.409,166.745 C77.343,164.97 77.146,163.282 76.466,161.507 C76.357,161.222 76.817,161.046 76.949,161.309 C77.803,162.975 78.483,164.904 78.636,166.833 L79.053,166.855 C79.031,166.175 78.921,165.496 78.724,164.838 C78.68,164.663 78.965,164.531 79.053,164.707 C79.338,165.408 79.535,166.131 79.622,166.876 L80.346,166.92 C80.324,166.811 80.324,166.679 80.302,166.548 C80.28,166.35 80.587,166.329 80.653,166.504 L80.784,166.964 C83.568,167.139 86.351,167.293 89.157,167.446 C88.609,155.216 88.894,142.943 90.187,130.8 C90.384,128.894 90.647,127.009 90.866,125.124 C91.063,123.348 91.107,121.683 90.45,120.061 C89.463,120.192 88.477,120.083 87.513,119.798 C87.469,119.82 87.425,119.842 87.359,119.864 C85.584,120.302 84.006,120.17 82.231,119.864 C82.165,119.864 82.187,119.754 82.253,119.754 C83.546,119.842 84.926,119.644 86.241,119.359 C85.496,119.031 84.773,118.636 84.072,118.198 C83.37,117.76 82.647,117.343 81.858,117.277 C81.42,117.562 81.157,117.716 80.565,117.672 C80.039,117.628 79.557,117.781 79.053,117.781 C78.57,117.76 78.22,117.584 77.803,117.409 C77.387,117.233 77.058,117.431 76.686,117.321 C76.51,117.277 76.444,117.168 76.335,117.036 C76.291,116.97 76.225,116.795 76.159,116.751 C76.006,116.664 76.006,116.773 75.831,116.729 C75.283,116.62 74.823,116.444 74.253,116.532 C73.792,116.62 73.244,116.97 72.806,116.949 C72.521,116.927 72.455,116.686 72.214,116.598 C71.82,116.444 71.469,116.532 71.053,116.269 C70.614,115.984 70.329,115.743 69.76,115.677 C69.584,115.677 69.365,115.721 69.168,115.634 C68.927,115.502 68.839,115.283 68.905,115.02 C68.971,114.779 69.124,114.625 69.365,114.56 C69.584,114.516 69.803,114.625 70.001,114.625 C70.636,114.647 70.921,114.34 71.425,114.077 C71.82,113.858 72.499,113.924 72.697,113.529 C72.894,113.157 72.762,112.828 73.201,112.587 C73.573,112.39 74.165,112.368 74.581,112.368 C74.713,112.368 75.107,112.346 75.239,112.302 C75.349,112.28 75.392,112.149 75.502,112.105 C75.655,112.061 75.743,112.017 75.875,112.017 C75.984,111.995 75.984,112.149 76.138,112.127 C76.335,112.105 76.335,111.973 76.466,111.864 C76.62,111.754 76.707,111.645 76.883,111.557 C76.203,111.272 75.436,111.184 74.669,111.382 C74.34,111.469 74.187,111.031 74.45,110.856 C74.691,110.702 74.954,110.593 75.173,110.417 C75.37,110.242 75.502,110.001 75.721,109.869 C75.918,109.738 76.094,109.716 76.313,109.716 C76.532,109.124 76.992,108.554 77.628,108.401 C77.759,108.379 77.891,108.401 78.022,108.401 C78.439,108.357 78.527,108.247 78.855,108.05 C79.206,107.831 79.491,107.721 79.907,107.59 C80.324,107.48 80.74,107.261 81.179,107.283 C81.551,107.283 81.661,107.458 81.946,107.634 C82.011,107.699 82.055,107.743 82.099,107.809 C82.384,107.875 82.647,107.853 82.888,107.743 C83.02,107.743 83.151,107.743 83.261,107.721 C83.524,107.678 83.765,107.721 84.072,107.612 C84.291,107.546 84.488,107.436 84.729,107.393 C85.108,107.316 84.869,107.359 85.45,107.281 z M49.574,141.715 C49.486,141.715 49.333,141.803 49.245,141.825 C49.091,141.847 48.96,141.847 48.807,141.847 C48.982,142.132 49.201,142.395 49.464,142.658 C50.209,143.381 51.064,143.973 51.897,144.586 C52.73,145.222 53.519,145.814 54.483,146.121 C54.308,145.726 54.111,145.354 53.826,145.003 C53.278,144.301 52.598,143.732 52.05,143.03 C51.787,142.658 51.546,142.285 51.349,141.912 C51.239,141.891 51.13,141.891 50.998,141.891 C50.691,141.891 50.45,141.803 50.165,141.781 C50.034,141.781 49.902,141.803 49.771,141.781 C49.661,141.759 49.705,141.715 49.574,141.715 z M58.056,143.249 C57.815,143.754 57.595,144.28 57.398,144.827 C57.53,144.762 57.661,144.674 57.793,144.586 C58.165,144.323 58.538,144.126 58.91,143.907 C58.823,143.819 58.735,143.754 58.582,143.71 C58.472,143.666 58.363,143.666 58.253,143.6 C58.143,143.512 58.1,143.381 58.056,143.249 z M53.782,141.628 C53.694,141.693 53.65,141.649 53.563,141.693 C53.519,141.715 53.453,141.781 53.343,141.825 C53.168,141.869 52.883,141.847 52.686,141.891 C52.533,141.934 52.379,141.956 52.204,141.956 C52.774,142.504 53.409,142.943 53.979,143.491 C54.132,143.644 54.286,143.775 54.417,143.929 L54.395,143.534 C54.352,142.943 54.22,142.351 54.067,141.781 L53.782,141.628 z M58.406,141.08 L58.384,141.08 C58.319,141.123 58.253,141.145 58.187,141.167 C57.771,141.321 57.354,141.321 56.916,141.343 C56.806,141.343 56.675,141.343 56.521,141.365 C56.412,141.386 56.302,141.408 56.193,141.408 C56.039,141.43 55.908,141.474 55.798,141.54 C55.842,141.649 55.842,141.759 55.842,141.891 C56.039,142.132 56.28,142.373 56.456,142.636 C56.631,142.921 56.763,143.249 56.916,143.556 C56.938,143.622 56.96,143.666 56.982,143.71 C57.267,143.14 57.617,142.614 57.924,142.066 C58.1,141.737 58.275,141.408 58.406,141.08 z M94.198,113.113 C94.241,114.187 93.847,115.173 93.54,116.203 C93.562,116.335 93.518,116.423 93.452,116.488 C93.321,117.036 93.211,117.606 93.233,118.176 C93.321,119.886 94.154,121.266 95.425,122.274 C95.206,120.412 95.6,118.592 96.367,116.839 C96.411,116.729 96.565,116.817 96.543,116.905 C96.324,117.869 96.236,118.833 96.236,119.82 C96.937,118.877 97.989,118.176 98.976,117.606 L99.239,117.431 C99.151,117.124 99.107,116.817 99.085,116.51 C98.997,116.488 98.91,116.401 98.932,116.291 C98.997,115.875 99.151,115.502 98.822,115.305 C98.581,115.173 98.274,115.239 98.033,115.086 C97.66,114.844 97.507,114.538 97.551,114.187 C97.463,114.209 97.354,114.209 97.222,114.209 C96.981,114.099 96.762,114.121 96.521,114.253 C96.477,114.34 96.455,114.406 96.411,114.472 C96.126,114.691 96.061,114.844 95.666,114.801 C94.811,114.713 95.008,114.077 95.096,113.508 C94.965,113.595 94.767,113.617 94.68,113.442 C94.482,113.091 94.461,113.288 94.198,113.113 z M99.765,118.242 C99.063,118.68 98.362,119.075 97.748,119.579 C98.559,119.162 99.458,118.987 100.4,118.943 C100.532,118.943 100.554,119.14 100.444,119.162 C99.129,119.403 98.033,120.17 97.288,121.179 C98.099,120.587 99.019,120.149 99.918,119.907 C101.189,119.557 102.57,119.403 103.907,119.162 C103.797,119.14 103.6,119.118 103.578,119.118 C103.381,119.075 103.206,118.943 103.03,118.899 C102.789,118.833 102.614,118.899 102.395,118.855 C102.132,118.812 102.066,118.658 101.891,118.505 C101.781,118.417 101.715,118.351 101.649,118.307 C101.014,118.351 100.378,118.329 99.765,118.242 z M84.247,115.349 C84.598,116.116 84.905,116.905 85.168,117.694 C85.211,117.76 85.211,117.847 85.189,117.913 C87.009,118.812 88.937,119.513 90.91,119.075 C90.603,118.636 90.318,118.22 90.055,117.803 C89.77,117.365 89.507,116.905 89.244,116.444 C88.74,116.203 88.083,116.379 87.513,116.291 C87.294,116.247 86.965,116.16 86.746,116.181 C86.592,116.203 86.461,116.357 86.263,116.379 C85.825,116.423 84.663,115.349 84.247,115.349 z M90.8,113.354 C90.691,113.705 90.537,114.034 90.296,114.253 L90.274,114.275 C90.384,114.647 90.581,114.998 90.384,115.37 C90.274,115.59 90.077,115.655 89.88,115.612 C89.843,115.759 89.85,115.677 89.88,115.858 L89.88,116.16 C89.902,116.181 89.924,116.203 89.946,116.225 C89.989,116.269 90.011,116.335 90.011,116.379 C90.23,116.707 90.472,117.014 90.713,117.343 C91.195,117.979 91.743,118.57 92.291,119.162 C92.159,118.242 92.225,117.343 92.532,116.466 C92.598,116.291 92.663,116.094 92.707,115.897 C92.532,115.327 92.378,114.757 92.247,114.187 C92.181,114.209 92.093,114.187 92.028,114.121 C91.699,113.836 91.239,113.771 90.91,113.486 C90.866,113.442 90.822,113.398 90.8,113.354 z M83.853,116.466 C83.414,116.554 82.976,116.686 82.581,116.883 C83.107,116.97 83.611,117.146 84.116,117.387 L83.853,116.466 z M93.825,113.025 C93.759,113.157 93.606,113.201 93.452,113.135 C92.97,112.872 92.707,113.486 92.576,113.88 L93.124,115.064 C93.408,114.406 93.693,113.749 93.825,113.025 z" fill="#000000"/>
        <path d="M148.246,52.972 C148.64,52.928 149.101,53.103 149.473,53.125 C149.999,53.147 150.525,53.015 151.029,53.103 C151.906,53.235 152.454,53.892 153.375,53.936 C154.295,53.98 155.194,53.432 156.07,53.629 C156.618,53.739 157.079,54.374 157.583,54.572 C157.977,54.725 158.416,54.725 158.81,54.9 C159.314,55.141 159.292,55.339 159.796,55.251 C159.972,55.229 160.147,54.944 160.366,54.9 C161.133,54.725 161.725,55.207 162.207,55.733 C163.062,56.654 163.61,56.807 164.815,57.004 L164.991,57.048 C165.057,56.676 165.232,56.347 165.692,56.391 C166.13,56.413 166.065,56.873 166.35,57.004 C167.314,57.421 167.665,56.303 168.278,55.755 C168.549,55.503 168.885,55.389 169.223,55.259 C171.271,59.217 173.197,63.309 174.525,67.577 C173.587,67.979 172.807,68.99 171.741,69.081 C171.391,69.059 171.171,68.752 170.865,68.708 C170.448,68.643 169.878,68.818 169.44,68.884 C168.41,69.037 167.226,68.708 166.284,69.147 C165.802,70.001 165.298,70.834 164.793,71.645 C164.289,72.412 163.763,73.201 163.215,73.969 C166.854,74.823 170.404,73.574 173.714,71.908 C173.67,71.777 173.692,71.645 173.736,71.492 C174.335,69.802 173.976,70.77 174.842,68.598 C175.812,71.714 175.477,70.472 175.946,72.298 L175.752,72.412 C174.459,73.201 173.144,73.925 171.763,74.538 C173.395,74.86 175.04,75.187 176.706,75.252 C176.791,75.582 176.746,75.393 176.834,75.82 C174.453,76.183 172.067,76.035 169.725,75.525 C169.615,75.503 169.528,75.459 169.462,75.393 C167.709,75.897 165.889,76.095 164.092,75.853 C162.887,78.834 162.952,81.881 163.325,85.103 C163.72,88.566 164.18,92.007 164.552,95.47 C166.01,109.525 166.894,123.658 166.914,137.793 C161.563,146.505 154.826,154.654 146.594,160.81 C146.347,156.828 146.452,158.773 146.273,154.975 C145.703,141.759 145.901,128.521 146.909,115.349 C147.413,108.839 148.092,102.374 148.969,95.908 C149.758,90.1 151.292,83.152 147.983,77.892 C145.945,77.037 143.643,76.511 141.671,76.095 C141.276,76.007 140.838,75.919 140.421,75.81 C140.005,75.788 139.588,75.788 139.282,75.766 C138.624,75.722 137.945,75.832 137.309,75.7 C136.871,75.612 136.52,75.349 136.104,75.262 C135.183,75.064 134.197,75.327 133.276,75.174 C132.553,75.042 132.158,75.174 131.501,75.305 C131.194,75.371 130.887,75.371 130.58,75.262 C129.835,74.955 129.967,74.341 129.528,73.837 C129.068,73.311 128.454,73.464 127.885,73.245 C127.512,73.092 127.337,72.829 127.008,72.653 C126.372,72.325 126.789,72.39 126.241,72.807 C126.065,72.938 125.956,73.07 125.78,73.158 C125.079,73.508 124.181,73.267 123.523,72.96 C122.537,72.522 121.331,71.864 120.455,71.251 C120.104,70.988 119.863,70.593 119.512,70.352 C118.942,69.958 118,69.826 117.32,69.826 C115.611,69.804 114.34,70.834 112.849,69.322 C112.542,69.015 112.323,68.665 112.499,68.226 C112.63,67.897 112.74,67.919 112.959,67.722 C113.463,67.24 113.792,66.955 114.208,66.363 C114.69,65.662 115.085,65.158 115.961,65.004 C116.356,64.939 116.86,65.114 117.233,65.004 C117.846,64.829 117.846,64.303 118.219,63.93 C118.964,63.185 119.424,63.47 120.367,63.36 C121.507,63.229 122.712,61.848 123.545,61.191 C124.202,60.665 124.728,60.424 125.561,60.796 C126.065,61.015 126.285,61.388 126.526,61.782 C126.701,61.629 127.008,61.585 127.227,61.717 C127.687,62.002 127.863,62.44 128.279,62.243 C128.674,62.045 128.739,60.73 128.959,60.38 C129.353,59.744 130.361,59.635 130.69,59.109 C130.975,58.67 130.624,58.035 130.997,57.421 C131.523,56.522 132.378,56.128 133.342,55.93 C134.35,55.733 134.942,55.799 135.687,54.944 C135.884,54.725 136.082,54.44 136.367,54.287 C137.112,53.87 137.923,54.155 138.69,54.352 C139.61,54.594 140.224,54.769 141.013,54.243 C141.188,54.133 141.298,53.914 141.495,53.783 C142.153,53.41 143.38,53.52 144.082,53.585 C145.09,53.651 145.747,53.651 146.755,53.41 C147.238,53.3 147.764,53.037 148.246,52.972 z M157.188,63.076 C156.728,63.404 156.662,63.032 156.311,63.667 C156.158,63.974 155.785,63.974 155.544,63.777 C155.698,64.829 156.07,65.969 154.514,66.144 C153.791,66.232 153.703,65.947 153.177,65.552 C153.112,65.443 153.046,65.311 153.002,65.18 C152.564,64.917 152.147,64.895 151.709,65.114 C151.468,65.114 151.292,65.114 151.117,65.092 C151.227,65.75 150.898,66.319 150.218,66.736 C149.78,66.999 149.21,66.889 148.794,67.13 C148.202,67.481 148.465,68.16 148.597,68.906 C148.64,69.103 148.487,69.234 148.334,69.278 C148.312,69.848 148.202,70.396 148.049,70.966 L148.531,71.273 C150.306,72.369 152.257,73.662 153.506,75.371 C153.484,73.574 153.331,71.799 152.958,70.023 C152.914,69.848 153.177,69.717 153.265,69.892 C154.668,73.092 155.391,76.401 154.996,79.842 C157.32,77.979 158.854,75.481 158.985,72.325 C159.029,71.273 158.832,70.243 158.547,69.212 C158.416,69.103 158.35,68.928 158.394,68.708 C157.846,66.845 157.122,65.004 157.188,63.076 z M146.975,72.5 C145.879,72.653 144.695,72.675 143.534,72.632 C143.424,72.697 143.293,72.829 143.095,73.004 C142.766,73.289 142.657,73.552 142.175,73.64 C141.78,73.706 141.473,73.574 141.035,73.706 C140.706,73.793 140.399,74.034 140.049,74.122 C140.005,74.122 139.654,74.144 139.457,74.188 C141.89,74.626 144.41,74.889 146.777,75.547 C148.421,76.007 150.131,76.796 151.555,77.914 C150.175,76.051 148.18,74.67 145.769,74.21 C145.528,74.166 145.594,73.815 145.813,73.815 C147.544,73.881 149.21,74.21 150.657,74.977 C149.561,74.056 148.246,73.311 146.975,72.5 z M163.391,63.58 C163.347,63.667 163.281,63.755 163.194,63.821 C162.602,64.369 161.747,64.478 161.133,65.004 C161.024,65.114 160.87,65.136 160.739,65.136 C160.498,66.188 160.235,67.218 159.884,68.248 C160.037,68.577 160.169,68.906 160.279,69.234 C160.848,70.812 160.98,72.5 160.717,74.122 C161.703,73.048 162.711,71.974 163.61,70.812 C164.048,70.221 164.487,69.629 164.903,69.037 C164.903,68.949 164.947,68.862 165.013,68.774 L165.122,68.665 C165.122,68.317 165.1,68.321 165.153,68.053 C165.161,68.013 165.182,67.975 165.184,67.934 C165.189,67.825 165.159,67.774 165.122,67.678 C164.75,67.766 164.399,67.656 164.18,67.262 C163.785,66.582 164.158,65.903 164.377,65.245 C164.377,65.245 164.355,65.245 164.333,65.223 C163.895,64.829 163.61,64.215 163.391,63.58 z M157.911,62.944 C158.131,64.259 158.657,65.465 159.226,66.67 C159.533,65.947 159.884,65.245 160.235,64.522 C159.972,63.799 159.533,62.659 158.613,63.141 C158.35,63.273 158.043,63.185 157.911,62.944 z M165.911,57.684 C165.911,57.684 165.911,57.706 165.933,57.706 C165.933,57.706 165.933,57.684 165.911,57.684 z" fill="#000000"/>
        <path d="M25.524,101.014 C26.266,101.067 25.943,101.06 26.495,101.058 C27.371,101.015 28.27,101.168 29.147,101.321 C29.979,101.475 30.966,101.321 31.755,101.65 C32.105,101.804 32.281,102.067 32.588,102.286 C33.114,102.658 33.64,102.439 34.253,102.352 C35.283,102.22 36.094,102.571 37.081,102.79 C37.979,102.987 38.812,103.163 39.448,103.864 C40.544,105.069 42.122,105.99 42.889,107.502 C43.59,108.883 45.585,108.401 46.176,109.869 C46.264,110.045 46.133,110.33 45.957,110.417 C45.541,110.614 45.19,110.593 44.752,110.636 L44.489,110.68 C44.533,110.702 44.555,110.724 44.576,110.746 C45.124,110.899 45.585,111.184 45.826,111.776 C45.892,111.951 45.782,112.127 45.65,112.214 C45.519,112.324 45.409,112.346 45.278,112.346 C45.015,112.762 44.839,113.113 44.27,113.288 C43.963,113.376 43.809,113.245 43.524,113.245 C43.086,113.245 42.648,113.529 42.407,113.924 C42.056,114.516 41.946,114.866 41.223,115.129 C40.872,115.261 40.631,115.283 40.281,115.261 C39.711,115.217 39.426,115.48 38.922,115.59 C38.725,115.634 38.505,115.59 38.352,115.634 C38.067,115.699 37.892,115.875 37.563,115.918 C37.19,115.962 36.862,115.897 36.511,115.897 C35.831,115.875 35.875,116.116 35.349,116.291 C34.889,116.445 34.341,116.335 33.815,116.181 C33.421,116.839 33.026,117.518 32.588,118.154 C31.601,119.579 30.374,121.157 28.818,122.033 C28.38,123.02 27.897,123.962 27.262,124.817 C26.341,126.066 25.026,127.403 23.558,128.258 C23.448,129.332 23.382,130.406 23.382,131.502 C23.382,133.825 23.382,136.126 23.404,138.428 L23.419,139.31 C20.918,135.44 18.854,131.315 17.061,127.077 C16.847,124.313 16.982,125.554 16.698,123.348 C16.443,121.674 15.574,120.525 14.295,119.486 C12.752,114.951 11.937,110.228 11.216,105.508 C11.509,104.94 11.906,104.448 12.489,104.171 C12.906,104.017 13.344,104.127 13.782,103.973 C14.046,103.886 14.243,103.71 14.506,103.667 C14.9,103.623 15.163,103.82 15.536,103.798 C15.974,103.798 16.237,103.557 16.632,103.382 C16.982,103.228 16.719,103.689 17.355,103.141 C17.443,103.075 17.465,102.943 17.552,102.856 C17.728,102.702 17.837,102.505 18.078,102.417 C18.341,102.33 18.495,102.461 18.736,102.483 C18.933,102.527 19.481,102.505 19.744,102.439 C20.38,102.264 20.686,101.387 21.432,101.541 C21.936,101.65 22.177,102.111 22.725,102.132 C23.36,102.154 23.623,101.738 24.062,101.387 C24.58,100.991 24.91,101.016 25.524,101.014 z M26.451,116.729 C26.319,117.014 26.144,117.277 25.969,117.518 C25.552,118.066 25.07,118.505 24.544,118.921 C24.456,120.061 24.347,121.223 24.215,122.34 C24.807,122.055 25.377,121.749 25.837,121.485 C26.977,120.85 27.853,119.995 28.752,119.053 C29.344,118.439 29.826,117.738 30.308,117.036 C30.286,117.058 30.286,117.058 30.264,117.058 C29.848,117.212 29.388,117.036 28.993,117.19 C28.686,117.299 28.621,117.518 28.226,117.562 C27.481,117.65 27.043,117.058 26.451,116.729 z M32.412,115.677 C32.303,115.699 32.171,115.721 32.04,115.743 L31.996,115.743 C31.952,115.809 31.93,115.897 31.886,115.962 C31.448,116.839 30.988,117.738 30.418,118.57 C30.396,118.834 30.264,118.965 30.111,119.206 C29.936,119.469 29.782,119.732 29.651,120.017 C29.848,119.842 30.045,119.644 30.221,119.447 C30.988,118.614 31.777,117.825 32.39,116.861 C32.588,116.554 32.807,116.225 33.048,115.918 L32.96,115.875 C32.763,115.787 32.588,115.721 32.412,115.677 z M18.911,114.034 C18.539,114.297 17.881,114.494 17.552,114.472 C17.859,114.845 18.013,115.283 17.75,115.918 C17.574,116.313 17.574,116.883 17.202,117.19 C17.004,117.365 16.785,117.343 16.566,117.431 C16.303,117.54 16.128,117.628 15.93,117.803 C16.654,118.22 17.377,118.614 18.078,119.096 C18.407,119.316 18.736,119.513 19.065,119.688 C19.065,119.425 19.087,119.162 19.174,118.833 C19.328,118.22 19.569,117.672 19.832,117.102 C20.117,116.51 20.358,115.875 20.73,115.327 C20.884,115.086 21.059,114.888 21.213,114.713 C21.125,114.713 21.059,114.713 20.993,114.691 C20.971,114.823 20.84,115.086 20.818,115.108 C20.643,115.458 20.204,115.436 19.941,115.217 C19.613,114.932 19.262,114.647 19.043,114.275 C19.021,114.231 18.955,114.121 18.911,114.034 z M25.092,114.603 C24.895,115.414 24.763,116.247 24.697,117.08 C24.697,117.19 24.675,117.299 24.654,117.387 C24.763,117.299 24.851,117.234 24.938,117.146 C25.311,116.817 25.618,116.445 25.881,116.072 C25.837,115.897 25.815,115.677 25.771,115.414 C25.749,115.305 25.727,115.195 25.684,115.108 C25.486,114.954 25.289,114.779 25.092,114.603 z M29.059,115.414 C28.993,115.436 28.949,115.436 28.906,115.458 L28.993,115.48 C28.993,115.458 29.015,115.458 29.037,115.436 L29.059,115.414 z" fill="#000000"/>
      </g>
    </g>
  </g>
</svg>
